<svg xmlns="http://www.w3.org/2000/svg" viewBox="0 0 43.5 28"><defs><style>.cls-1{fill:#4c70bf;}</style></defs><g id="Layer_2" data-name="Layer 2"><g id="Layer_1-2" data-name="Layer 1"><path class="cls-1" d="M43.5.05V9.29l-.66,0c-.39-1-.69-1.95-1.15-2.84A8,8,0,0,0,34,1.79c-3.78.13-6.28,2.23-7.61,5.73a16.73,16.73,0,0,0-1.05,6.05,14.54,14.54,0,0,1-12,14.18A15.46,15.46,0,0,1,5,26.87c-.6-.23-1.2-.48-1.82-.66a1.61,1.61,0,0,0-2.29,1.3c0,.15-.09.29-.14.45H0V18.73H.72c.22.63.4,1.31.67,1.94a8.45,8.45,0,0,0,6.5,5.44,8.22,8.22,0,0,0,8.91-4.74,17.91,17.91,0,0,0,1.43-7.15,14,14,0,0,1,3.26-8.86A14.25,14.25,0,0,1,31.2.09a15.85,15.85,0,0,1,8,1.3,11.2,11.2,0,0,0,1.27.44A1.58,1.58,0,0,0,42.6.63c.06-.18.1-.37.16-.58Zm-26,8.34A14.79,14.79,0,0,1,20,3.88l.29-.33A14.44,14.44,0,0,0,7.11.5c-1.42.35-2.78.92-4.18,1.34A1.45,1.45,0,0,1,1,.9C.88.62.8.32.71.05H0V9.29H.73c1.2-4.36,3.69-7.4,8.46-7.49,4.38-.07,7,2.55,8.29,6.64ZM42.56,19.31a14,14,0,0,1-1.38,3.08,7.94,7.94,0,0,1-8,3.78,8.07,8.07,0,0,1-6.7-5.46c-.14-.34-.28-1-.38-1.24h0a14.62,14.62,0,0,1-2.83,5c.21.17.45.38.71.57a14.09,14.09,0,0,0,11.41,2.7,39.62,39.62,0,0,0,4.59-1.38c1.71-.56,2.35-.22,2.81,1.54,0,0,.05.05.09.11l.66,0V18.73C42.92,18.58,42.74,18.79,42.56,19.31Z"/></g></g></svg>